<svg xmlns="http://www.w3.org/2000/svg" xmlns:xlink="http://www.w3.org/1999/xlink" width="512px" height="512px" style="shape-rendering:geometricPrecision; text-rendering:geometricPrecision; image-rendering:optimizeQuality; fill-rule:evenodd; clip-rule:evenodd"><g><path style="opacity:0.947" fill="#000000" d="M 251.5,-0.5 C 254.167,-0.5 256.833,-0.5 259.5,-0.5C 339.296,32.8902 419.296,66.0568 499.5,99C 502.562,100.061 505.062,101.894 507,104.5C 507.667,205.167 507.667,305.833 507,406.5C 506.308,407.025 505.808,407.692 505.5,408.5C 423.596,443.24 341.596,477.574 259.5,511.5C 256.833,511.5 254.167,511.5 251.5,511.5C 169.404,477.574 87.4039,443.24 5.5,408.5C 5.19238,407.692 4.69238,407.025 4,406.5C 3.33333,305.833 3.33333,205.167 4,104.5C 5.93842,101.894 8.43842,100.061 11.5,99C 91.7035,66.0568 171.704,32.8902 251.5,-0.5 Z M 254.5,17.5 C 328.127,47.3193 401.46,77.8193 474.5,109C 401.5,139.167 328.5,169.333 255.5,199.5C 182.5,169.333 109.5,139.167 36.5,109C 38.0009,107.748 39.6675,106.748 41.5,106C 112.803,76.9624 183.803,47.4624 254.5,17.5 Z M 20.5,122.5 C 95.9352,152.799 171.102,183.799 246,215.5C 246.833,306.835 246.667,398.168 245.5,489.5C 170.833,458.5 96.1667,427.5 21.5,396.5C 20.5,305.169 20.1667,213.836 20.5,122.5 Z M 487.5,122.5 C 488.5,122.5 489.5,122.5 490.5,122.5C 490.833,213.836 490.5,305.169 489.5,396.5C 414.833,427.5 340.167,458.5 265.5,489.5C 264.333,398.168 264.167,306.835 265,215.5C 339.298,184.594 413.465,153.594 487.5,122.5 Z"></path></g></svg>